HIERARCHY
ROOT Hips
{
	OFFSET	0.00	0.00	0.00
	CHANNELS 6 Xposition Yposition Zposition Zrotation Xrotation Yrotation
	JOINT LeftUpLeg
	{
		OFFSET	 0.126116	-0.014019	-0.065224
		CHANNELS 3 Zrotation Xrotation Yrotation
		JOINT LeftLeg
		{
			OFFSET	 0.000000	 0.000000	 0.569914
			CHANNELS 3 Zrotation Xrotation Yrotation
			JOINT LeftFoot
			{
				OFFSET	 0.000000	 0.000000	 0.544423
				CHANNELS 3 Zrotation Xrotation Yrotation
				JOINT LeftToeBase
				{
					OFFSET	 0.000000	 0.000000	 0.207117
					CHANNELS 3 Zrotation Xrotation Yrotation
					End Site
					{
						OFFSET	 0.000000	 0.000000	 0.207117
					}
				}
			}
		}
	}
	JOINT RightUpLeg
	{
		OFFSET	-0.124023	-0.008373	-0.065224
		CHANNELS 3 Zrotation Xrotation Yrotation
		JOINT RightLeg
		{
			OFFSET	 0.000000	 0.000000	 0.570047
			CHANNELS 3 Zrotation Xrotation Yrotation
			JOINT RightFoot
			{
				OFFSET	 0.000000	 0.000000	 0.544354
				CHANNELS 3 Zrotation Xrotation Yrotation
				JOINT RightToeBase
				{
					OFFSET	 0.000000	 0.000000	 0.207540
					CHANNELS 3 Zrotation Xrotation Yrotation
					End Site
					{
						OFFSET	 0.000000	 0.000000	 0.207540
					}
				}
			}
		}
	}
	JOINT Spine
	{
		OFFSET	 0.000184	-0.007763	 0.117403
		CHANNELS 3 Zrotation Xrotation Yrotation
		JOINT Spine1
		{
			OFFSET	 0.000000	 0.000000	 0.137269
			CHANNELS 3 Zrotation Xrotation Yrotation
			JOINT Spine2
			{
				OFFSET	 0.000000	 0.000000	 0.156879
				CHANNELS 3 Zrotation Xrotation Yrotation
				JOINT LeftShoulder
				{
					OFFSET	 0.080501	-0.002496	 0.160144
					CHANNELS 3 Zrotation Xrotation Yrotation
					JOINT LeftArm
					{
						OFFSET	 0.000000	 0.000000	 0.164363
						CHANNELS 3 Zrotation Xrotation Yrotation
						JOINT LeftForeArm
						{
							OFFSET	 0.000000	 0.000000	 0.364576
							CHANNELS 3 Zrotation Xrotation Yrotation
							JOINT LeftHand
							{
								OFFSET	 0.000000	 0.000000	 0.360812
								CHANNELS 3 Zrotation Xrotation Yrotation
								JOINT LeftHandIndex1
								{
									OFFSET	 0.000000	 0.000000	 0.086006
									CHANNELS 3 Zrotation Xrotation Yrotation
									JOINT LeftHandIndex2
									{
										OFFSET	 0.000000	 0.000000	 0.047236
										CHANNELS 3 Zrotation Xrotation Yrotation
										JOINT LeftHandIndex3
										{
											OFFSET	-0.004284	-0.000551	 0.038166
											CHANNELS 3 Zrotation Xrotation Yrotation
											End Site
											{
												OFFSET	-0.004284	-0.000551	 0.038166
											}
										}
									}
								}
							}
						}
					}
				}
				JOINT Neck
				{
					OFFSET	 0.000000	 0.000000	 0.176489
					CHANNELS 3 Zrotation Xrotation Yrotation
					JOINT Head
					{
						OFFSET	 0.000000	-0.001747	 0.077940
						CHANNELS 3 Zrotation Xrotation Yrotation
						End Site
						{
							OFFSET	 0.000000	-0.001747	 0.077940
						}
					}
				}
				JOINT RightShoulder
				{
					OFFSET	-0.080363	 0.000306	 0.159706
					CHANNELS 3 Zrotation Xrotation Yrotation
					JOINT RightArm
					{
						OFFSET	 0.000000	 0.000000	 0.164196
						CHANNELS 3 Zrotation Xrotation Yrotation
						JOINT RightForeArm
						{
							OFFSET	 0.000000	 0.000000	 0.365611
							CHANNELS 3 Zrotation Xrotation Yrotation
							JOINT RightHand
							{
								OFFSET	 0.000000	 0.000000	 0.360648
								CHANNELS 3 Zrotation Xrotation Yrotation
								JOINT RightHandIndex1
								{
									OFFSET	 0.000000	 0.000000	 0.069977
									CHANNELS 3 Zrotation Xrotation Yrotation
									JOINT RightHandIndex2
									{
										OFFSET	 0.000000	 0.000000	 0.052305
										CHANNELS 3 Zrotation Xrotation Yrotation
										JOINT RightHandIndex3
										{
											OFFSET	 0.009002	-0.000782	 0.042196
											CHANNELS 3 Zrotation Xrotation Yrotation
											End Site
											{
												OFFSET	 0.009002	-0.000782	 0.042196
											}
										}
									}
								}
							}
						}
					}
				}
			}
		}
	}
}
MOTION
Frames:    7
Frame Time: 0.03333334
-10.272790	-33.254290	 0.924811	-33.562610	 16.998920	 3.760677	 3.368399	-34.990330	 175.162500	-0.898083	-43.270410	-0.129318	-0.604184	 80.560230	 0.627730	-2.349159	 34.583740	-0.138905	-0.711954	-36.266250	-179.595800	-3.102225	-43.452740	-1.019867	-1.587182	 80.613010	 0.389960	 2.406848	 19.625630	-0.180521	 27.866060	 15.785940	 2.998420	-11.471630	 3.580786	-1.478639	-14.455020	-1.911503	-1.201996	-125.865300	 89.282910	-141.689200	 52.975300	 65.245560	-60.873120	-31.007820	 12.023280	-32.298580	 28.204980	-4.585456	-3.554132	-5.801220	-12.472190	-1.627166	-5.213516	-0.193813	 3.566525	-1.378229	 35.397820	-2.634230	 0.830127	 0.228387	-3.833415	-3.570459	-6.889835	 0.584386	 93.690740	 85.925130	 171.995400	-62.544040	 73.782710	 72.755170	 15.035470	 1.724312	 47.564210	-53.673120	-7.568799	 6.691689	-10.136040	-10.469620	-39.101370	 5.070815	-0.697434	-9.399699	-2.350882	 35.473990	 5.254307
-10.279920	-33.271970	 0.926271	-33.316050	 17.868760	 3.785549	 3.615212	-34.920150	 175.550800	-1.831590	-43.109210	-0.630812	-0.918969	 81.435620	 0.331317	-2.353402	 34.017910	-0.125479	-0.770328	-35.823700	-179.396400	-2.740072	-42.702350	-0.815352	-1.586938	 82.047470	 0.701339	 2.406044	 20.472640	-0.163706	 24.284310	 15.467000	 2.707333	-11.362500	 3.229001	-1.621689	-14.409820	-2.383335	-1.257453	-124.713700	 89.260340	-142.828500	 58.526660	 66.932980	-62.723510	-26.946830	 8.417181	-28.982400	 34.298340	-4.934660	-3.077607	-5.391803	-11.946160	-0.721952	-5.213516	-0.193813	 3.566525	-1.378229	 35.397820	-2.634230	 0.758889	-0.037092	-3.692811	-3.599569	-7.568566	 0.752790	 93.685010	 85.976450	 172.085200	-57.611860	 76.802940	 65.546970	 12.816620	-1.719761	 37.282890	-61.298160	-8.159815	 5.960000	-9.519053	-9.228165	-38.549470	 5.070815	-0.697434	-9.399699	-2.350882	 35.473990	 5.254307
-10.287210	-33.288360	 0.926434	-33.498090	 18.573230	 3.859844	 3.547083	-34.975930	 175.627500	-2.079922	-43.554760	-0.858906	-1.067020	 82.251440	 0.206926	-2.343930	 35.248700	-0.154869	-0.739434	-35.357320	-179.483900	-2.332216	-42.286080	-0.523975	-1.459819	 83.111680	 0.964289	 2.404846	 21.406700	-0.145039	 19.486370	 15.136720	 2.540183	-11.053140	 2.845560	-1.666146	-14.299590	-2.833083	-1.303761	-120.136600	 89.141340	-147.295400	 63.227990	 68.179460	-64.319180	-21.871710	 4.992422	-25.628920	 40.402450	-5.219765	-2.585434	-4.501764	-11.095600	 1.311154	-5.213516	-0.193813	 3.566525	-1.378229	 35.397820	-2.634230	 0.763016	-0.431373	-3.437325	-3.691188	-8.195404	 0.517571	 93.718360	 86.096560	 172.197500	-45.995960	 79.530240	 51.128450	 9.107518	-4.766863	 29.927550	-68.745670	-8.653964	 5.141495	-8.952880	-8.012418	-38.077510	 5.070815	-0.697434	-9.399699	-2.350882	 35.473990	 5.254307
-10.292420	-33.300500	 0.927330	-33.935030	 19.060390	 3.958084	 3.567132	-34.824460	 175.702600	-2.240968	-43.688720	-0.968954	-1.147606	 82.520710	 0.162030	-2.335046	 36.305400	-0.180676	-0.755509	-35.307720	-179.549500	-2.401798	-42.153930	-0.580458	-1.519323	 83.350720	 0.976170	 2.404609	 21.567230	-0.141814	 14.285830	 14.837730	 2.323072	-10.738690	 2.466629	-1.502169	-14.059930	-3.231205	-1.330423	-113.301500	 88.910160	-154.110800	 65.698670	 69.193380	-64.811740	-17.746150	 2.505080	-22.778950	 44.785140	-5.401828	-2.194110	-4.017085	-10.593260	 2.443366	-5.213516	-0.193813	 3.566525	-1.378229	 35.397820	-2.634230	 0.874221	-0.561186	-3.165301	-3.648505	-8.738781	 0.638262	 94.094690	 86.392720	 171.915100	-34.956300	 80.617910	 38.189840	 5.576805	-6.843320	 25.335310	-73.598890	-8.979991	 4.487299	-8.733298	-7.556163	-37.878840	 5.070815	-0.697434	-9.399699	-2.350882	 35.473990	 5.254307
-10.296970	-33.310750	 0.929632	-34.390510	 19.550700	 3.904811	 3.574735	-34.784610	 175.771200	-2.569272	-43.483100	-1.183633	-1.249137	 82.322300	 0.030238	-2.327468	 37.146240	-0.201611	-0.853306	-35.403120	-179.359000	-2.656841	-42.067780	-0.811523	-1.705333	 83.404830	 0.907013	 2.404523	 21.627060	-0.140614	 7.963183	 14.495000	 2.221117	-10.465170	 2.135427	-1.288811	-13.730470	-3.564573	-1.338784	-108.614500	 88.666900	-158.839400	 67.156440	 69.829860	-65.266970	-12.988780	 0.224260	-19.815890	 48.919540	-5.534483	-1.841249	-3.852034	-10.899920	 2.834193	-5.213516	-0.193813	 3.566525	-1.378229	 35.397820	-2.634230	 0.957846	-0.760216	-2.794722	-3.489412	-8.892195	 0.918820	 94.665550	 86.689380	 171.334700	-27.253540	 80.812130	 29.083070	 1.128122	-8.873453	 21.624600	-77.614650	-9.225111	 3.913824	-8.652721	-7.632122	-37.632810	 5.070815	-0.697434	-9.399699	-2.350882	 35.473990	 5.254307
-10.301880	-33.319440	 0.931646	-34.725740	 19.854380	 3.875056	 3.571134	-34.402190	 175.798000	-2.703659	-43.194070	-1.271762	-1.310935	 82.191790	-0.017033	-2.321845	 37.738280	-0.216579	-0.795619	-35.316180	-179.254200	-2.938017	-41.791610	-0.971694	-1.830009	 83.406170	 0.850212	 2.404701	 21.509250	-0.142981	 0.925630	 14.155490	 2.182717	-10.184410	 1.937481	-1.178214	-13.374220	-3.761878	-1.326681	-107.028700	 88.575910	-160.513400	 67.539550	 70.050730	-65.405510	-7.838036	-1.671314	-17.006770	 52.292090	-5.616067	-1.567683	-4.110059	-11.064800	 2.229159	-5.213516	-0.193813	 3.566525	-1.378229	 35.397820	-2.634230	 1.034128	-0.795907	-2.543520	-3.328566	-9.007546	 1.052695	 94.895470	 86.815800	 171.134000	-23.125070	 80.638400	 24.026970	-3.625401	-10.718770	 18.399030	-80.422740	-9.395293	 3.476119	-8.572835	-7.738885	-37.367310	 5.070815	-0.697434	-9.399699	-2.350882	 35.473990	 5.254307
-10.307840	-33.326880	 0.933374	-34.608410	 20.008490	 3.833519	 3.539725	-34.076070	 175.781600	-2.539532	-42.921900	-1.170211	-1.315567	 82.277350	 0.075032	-2.317301	 38.199990	-0.228383	-0.688213	-34.554040	-179.247800	-2.862386	-41.032120	-0.864615	-1.710464	 83.613250	 0.860582	 2.405075	 21.248590	-0.148206	-7.065160	 13.779080	 2.112959	-9.977747	 1.808884	-1.204104	-12.985090	-3.878805	-1.300951	-106.974700	 88.600300	-160.664400	 66.682820	 70.009470	-64.781680	-3.422322	-3.208214	-18.428440	 53.593810	-5.653775	-1.413892	-4.197007	-11.280610	 2.028490	-5.213516	-0.193813	 3.566525	-1.378229	 35.397820	-2.634230	 1.068385	-0.768717	-2.523633	-3.114834	-9.106529	 1.162694	 94.917340	 86.804940	 171.078700	-22.252300	 80.370040	 22.826130	-8.712211	-12.465370	 18.580390	-82.026810	-9.500315	 3.186583	-8.509768	-7.855647	-37.135730	 5.070815	-0.697434	-9.399699	-2.350882	 35.473990	 5.254307
